<svg width="20" height="21" viewBox="0 0 20 21" fill="none" xmlns="http://www.w3.org/2000/svg">
<path d="M15.9168 13.0703C15.6578 13.3345 15.5388 13.7166 15.5978 14.0913L16.4867 19.2699C16.5617 19.7088 16.3857 20.153 16.0368 20.4067C15.6948 20.6698 15.2399 20.7014 14.8669 20.4909L10.4385 18.0594C10.2845 17.9731 10.1136 17.9268 9.93858 17.9216H9.66761C9.57362 17.9363 9.48164 17.9679 9.39765 18.0163L4.96823 20.4593C4.74926 20.5751 4.50129 20.6161 4.25832 20.5751C3.6664 20.4572 3.27145 19.8635 3.36844 19.2373L4.25832 14.0587C4.31731 13.6808 4.19833 13.2966 3.93936 13.0282L0.328833 9.34423C0.0268723 9.03583 -0.078114 8.57271 0.059868 8.15484C0.19385 7.73803 0.535806 7.43384 0.948752 7.36542L5.9181 6.60652C6.29605 6.56547 6.62801 6.32338 6.79799 5.96551L8.9877 1.23951C9.03969 1.13426 9.10669 1.03742 9.18768 0.955322L9.27766 0.881643C9.32466 0.82691 9.37865 0.78165 9.43864 0.74481L9.54763 0.702708L9.71761 0.629028H10.1386C10.5145 0.670078 10.8455 0.906904 11.0184 1.26057L13.2371 5.96551C13.3971 6.3097 13.7081 6.54863 14.067 6.60652L19.0364 7.36542C19.4563 7.42857 19.8073 7.73382 19.9463 8.15484C20.0773 8.57692 19.9643 9.04004 19.6563 9.34423L15.9168 13.0703Z" fill="#F6B76F" style="fill:#F6B76F;fill:color(display-p3 0.9647 0.7176 0.4353);fill-opacity:1;"/>
</svg>
